Coordinates
version=1
nRows=16
nColumns=42
inDegrees=yes

Units are S.I. units (second, meters, Newtons, ...)
If the header above contains a line with 'inDegrees', this indicates whether rotational values are in degrees (yes) or radians (no).

endheader
time	pelvis_tilt	pelvis_list	pelvis_rotation	pelvis_tx	pelvis_ty	pelvis_tz	hip_flexion_r	hip_adduction_r	hip_rotation_r	knee_angle_r	knee_adduction_r	knee_angle_r_beta	ankle_angle_r	subtalar_angle_r	mtp_angle_r	hip_flexion_l	hip_adduction_l	hip_rotation_l	knee_angle_l	knee_adduction_l	knee_angle_l_beta	ankle_angle_l	subtalar_angle_l	mtp_angle_l	lumbar_extension	lumbar_bending	lumbar_rotation	arm_flex_r	arm_add_r	arm_rot_r	elbow_flex_r	pro_sup_r	wrist_flex_r	wrist_dev_r	arm_flex_l	arm_add_l	arm_rot_l	elbow_flex_l	pro_sup_l	wrist_flex_l	wrist_dev_l
      0.40000000	     14.97480527	     -2.68448276	      1.70324976	     -2.13582281	      0.90546851	      0.07220565	    -28.49863349	     -0.85437151	    -18.81124351	      9.35022420	     13.61100582	      0.16319220	     15.34405578	     34.28625424	     -9.51684249	     16.14170612	     -3.07499688	    -11.62923926	     18.54583458	     -4.64960961	      0.32368588	     12.02511994	      8.80843634	     -9.51684249	    -33.97289461	      1.70528960	      0.77573571	     21.60599074	    -23.61877936	      8.98972430	     63.72262557	     90.00000001	      0.00000000	      0.00000000	     -4.64699594	     -7.40764124	      2.35483381	     33.90847525	     90.00000001	      0.00000000	      0.00000000
      0.41000000	     14.82276822	     -2.80859526	      1.73097870	     -2.12724223	      0.90420318	      0.07109363	    -28.81330465	     -0.87964929	    -18.58026552	      9.60855792	     13.56431665	      0.16770097	     15.32882187	     34.26073591	     -9.51094112	     16.25095216	     -3.04287383	    -11.67555076	     18.59862396	     -4.68584145	      0.32460722	     12.05744089	      8.76625814	     -9.51094112	    -33.76567389	      1.83871780	      0.75539425	     21.83130777	    -23.71704261	      8.91090980	     63.84217962	     90.00000001	      0.00000000	      0.00000000	     -4.88908231	     -7.42256011	      2.37166728	     33.77597907	     90.00000001	      0.00000000	      0.00000000
      0.42000000	     14.71178925	     -2.96266285	      1.64941817	     -2.11871446	      0.90298406	      0.07008566	    -29.03652585	     -0.96566216	    -18.31261578	     10.21446545	     13.52173423	      0.17827605	     15.61319352	     34.37227038	     -9.47573036	     16.48726127	     -3.09064979	    -12.10472113	     19.50278271	     -4.84444992	      0.34038777	     12.61098837	      8.33710831	     -9.47573036	    -33.63875335	      1.95524020	      0.86143582	     22.02488840	    -23.86819087	      8.90819969	     64.11645830	     90.00000001	      0.00000000	      0.00000000	     -4.96546195	     -7.40512011	      2.77972309	     33.02058279	     90.00000001	      0.00000000	      0.00000000
      0.43000000	     14.54355948	     -3.09980209	      1.58819838	     -2.11000730	      0.90174178	      0.06899716	    -29.20866917	     -1.04096153	    -18.20757847	     10.80394020	     13.38534917	      0.18856433	     15.79432553	     34.59756058	     -9.44105172	     16.69020486	     -3.10595979	    -12.21543228	     20.59791251	     -4.91695828	      0.35950139	     13.11104839	      7.85016176	     -9.44105172	    -33.43775848	      2.05197041	      0.95291351	     22.10242602	    -23.94061013	      8.75289943	     64.20698467	     90.00000001	      0.00000000	      0.00000000	     -5.09106572	     -7.41406511	      3.32571896	     32.24330060	     90.00000001	      0.00000000	      0.00000000
      0.44000000	     14.39770899	     -3.15512009	      1.48494337	     -2.10125806	      0.90068063	      0.06786072	    -29.39319114	     -1.22638050	    -17.91697725	     11.38157488	     13.26049948	      0.19864596	     15.82426401	     34.71589131	     -9.42363791	     16.67701332	     -2.99432586	    -12.03478275	     21.61850849	     -4.91971504	      0.37731415	     13.42962342	      7.42904213	     -9.42363791	    -33.28319481	      2.04819102	      1.01157097	     22.17530280	    -23.93008261	      8.60520615	     64.24326706	     90.00000001	      0.00000000	      0.00000000	     -5.21600837	     -7.41359380	      3.64009180	     31.71272690	     90.00000001	      0.00000000	      0.00000000
      0.45000000	     14.14036187	     -3.30230743	      1.36878254	     -2.09219627	      0.89933612	      0.06685941	    -29.42987831	     -1.29196745	    -18.09169044	     12.15572160	     13.00874390	      0.21215736	     16.10512103	     35.14399426	     -9.39355523	     16.90455216	     -3.05526136	    -12.06720230	     23.21553590	     -4.86297181	      0.40518754	     14.14267497	      6.15134417	     -9.39355523	    -32.95715315	      2.10836872	      1.20622714	     21.99392883	    -23.96302428	      8.26971109	     64.26302907	     90.00000001	      0.00000000	      0.00000000	     -5.20754552	     -7.51969021	      4.16027962	     31.08430741	     90.00000001	      0.00000000	      0.00000000
      0.46000000	     13.91554711	     -3.36061106	      1.21489523	     -2.08310856	      0.89824460	      0.06570370	    -29.49446404	     -1.48325978	    -18.07583319	     12.88094520	     12.76014771	      0.22481490	     16.21216855	     35.47993618	     -9.36843256	     16.87554778	     -2.98457494	    -11.88517226	     24.51200060	     -4.71300138	      0.42781512	     14.60585055	      5.10885888	     -9.36843256	    -32.69042048	      2.09117308	      1.36898450	     21.80829512	    -23.93865770	      7.94483165	     64.21666457	     90.00000001	      0.00000000	      0.00000000	     -5.16281537	     -7.63169240	      4.25990711	     31.03117093	     90.00000001	      0.00000000	      0.00000000
      0.47000000	     13.69759770	     -3.35656064	      1.13150808	     -2.07403978	      0.89730164	      0.06439685	    -29.52439875	     -1.67255790	    -18.43303512	     13.73258204	     12.34495716	      0.23967877	     16.40503620	     36.22846126	     -9.26622382	     16.67377919	     -2.76716524	    -11.11629447	     25.55630557	     -4.36265842	      0.44604168	     14.63743128	      2.96701202	     -9.26622382	    -32.45554513	      2.03382763	      1.47058446	     21.54684619	    -23.87756439	      7.57361243	     64.14063481	     90.00000001	      0.00000000	      0.00000000	     -4.97055763	     -7.76477285	      3.83316343	     31.23291732	     90.00000001	      0.00000000	      0.00000000
      0.48000000	     13.46062086	     -3.31119262	      0.89539034	     -2.06471533	      0.89640666	      0.06322448	    -29.57194394	     -2.02662588	    -18.20980890	     14.44582796	     12.20578371	      0.25212726	     16.34211391	     36.19277605	     -9.24678563	     16.49597550	     -2.62337282	    -11.24981782	     26.60574119	     -4.24545319	      0.46435778	     15.02643280	      2.20015598	     -9.24678563	    -32.17692601	      1.87139786	      1.65832376	     21.22698684	    -23.79349139	      7.24366233	     63.92501005	     90.00000001	      0.00000000	      0.00000000	     -4.76985601	     -7.94236634	      3.41155232	     31.66137133	     90.00000001	      0.00000000	      0.00000000
      0.49000000	     13.23433308	     -3.27753210	      0.68958300	     -2.05532689	      0.89562214	      0.06202127	    -29.60144144	     -2.30790830	    -18.05629721	     15.19054806	     11.95191024	      0.26512508	     16.31705394	     36.18555434	     -9.22804158	     16.30158818	     -2.52212209	    -11.45986521	     27.57915442	     -4.14393294	      0.48134705	     15.28566341	      1.43495782	     -9.22804158	    -31.91641986	      1.72795619	      1.83421420	     20.83591452	    -23.68298994	      6.86632106	     63.67923676	     90.00000001	      0.00000000	      0.00000000	     -4.50983324	     -8.10004440	      2.77288034	     32.15845027	     90.00000001	      0.00000000	      0.00000000
      0.50000000	     13.02817820	     -3.18528673	      0.53287941	     -2.04590893	      0.89500080	      0.06070787	    -29.60706538	     -2.61308355	    -18.15511618	     16.05778049	     11.59010451	      0.28026114	     16.41076085	     36.43473989	     -9.16808160	     16.06514584	     -2.33228328	    -11.63822892	     28.35114884	     -4.10519060	      0.49482089	     15.22768952	      0.51531264	     -9.16808160	    -31.69755822	      1.51602990	      1.91940139	     20.37929170	    -23.49811699	      6.48587013	     63.38248614	     90.00000001	      0.00000000	      0.00000000	     -4.14078699	     -8.09927527	      1.29385591	     32.46708141	     90.00000001	      0.00000000	      0.00000000
      0.51000000	     12.85866029	     -3.09209659	      0.34996970	     -2.03648560	      0.89454090	      0.05940196	    -29.62752029	     -2.95612377	    -17.92283997	     16.89715456	     11.37076060	      0.29491098	     16.10731859	     36.30353054	     -9.15305369	     15.83095316	     -2.26853894	    -12.01840765	     29.11871770	     -3.98073404	      0.50821750	     15.32589505	      0.12660110	     -9.15305369	    -31.52170403	      1.29881270	      2.04854527	     19.92191904	    -23.37631166	      6.24196570	     62.95716779	     90.00000001	      0.00000000	      0.00000000	     -3.78087552	     -8.28511102	      0.92499997	     32.79331349	     90.00000001	      0.00000000	      0.00000000
      0.52000000	     12.72343087	     -2.94478947	      0.15644450	     -2.02685658	      0.89420623	      0.05811707	    -29.62079621	     -3.32724952	    -17.90943567	     17.90710785	     10.98601226	      0.31253799	     15.87213552	     36.19981312	     -9.12361550	     15.61422458	     -2.15311718	    -12.71591639	     29.85220377	     -4.11226040	      0.52101924	     15.23080128	     -0.21416401	     -9.12361550	    -31.36880847	      0.99601423	      2.14494250	     19.34488882	    -23.15959575	      5.86668989	     62.51656456	     90.00000001	      0.00000000	      0.00000000	     -3.42685349	     -8.40977066	      0.28854368	     32.99839273	     90.00000001	      0.00000000	      0.00000000
      0.53000000	     12.64611852	     -2.79409751	     -0.01493608	     -2.01725306	      0.89408936	      0.05678548	    -29.61354430	     -3.74318561	    -17.81160934	     19.01672023	     10.73217432	      0.33190438	     15.43912976	     36.12000891	     -9.09530446	     15.35644427	     -2.11227957	    -13.20077249	     30.57115804	     -4.04146102	      0.53356736	     15.03893740	     -0.30958507	     -9.09530446	    -31.29730726	      0.68981096	      2.20471897	     18.78175506	    -22.97200799	      5.63327621	     62.02072383	     90.00000001	      0.00000000	      0.00000000	     -3.05876973	     -8.53493764	     -0.11813148	     32.99863249	     90.00000001	      0.00000000	      0.00000000
      0.54000000	     12.59391660	     -2.67889728	     -0.10390195	     -2.00769656	      0.89411789	      0.05528956	    -29.61842240	     -4.05390343	    -17.43617968	     20.00916388	     10.47607634	      0.34922579	     14.93803939	     36.00814840	     -9.08697655	     15.09381412	     -2.08077938	    -13.26924713	     31.25995040	     -3.87536805	      0.54558906	     14.80843522	     -0.31981036	     -9.08697655	    -31.27215556	      0.45184512	      2.20430725	     18.16133956	    -22.83336899	      5.56739864	     61.52673569	     90.00000001	      0.00000000	      0.00000000	     -2.66349935	     -8.70511683	     -0.24090846	     32.99875050	     90.00000001	      0.00000000	      0.00000000
      0.55000000	     12.67853606	     -2.47594055	     -0.33709369	     -1.99786716	      0.89445565	      0.05408317	    -29.57898208	     -4.58176650	    -17.59389243	     21.59096881	     10.07434572	      0.37683349	     13.97720885	     35.59821294	     -9.06299981	     14.66664293	     -2.06627774	    -13.90541799	     31.94380290	     -3.78502019	      0.55752454	     14.42441785	     -0.62139090	     -9.06299981	    -31.35673249	      0.02923770	      2.28692820	     17.50535264	    -22.57639870	      5.28595269	     60.88742739	     90.00000001	      0.00000000	      0.00000000	     -2.22583260	     -8.84547254	     -0.44734128	     32.75426257	     90.00000001	      0.00000000	      0.00000000
